<svg width="24" height="25" viewBox="0 0 24 25" fill="none" xmlns="http://www.w3.org/2000/svg">
<g id="Bold / Essentional, UI / Menu Dots ">
<g id="Vector">
<path d="M7 12.5C7 13.6046 6.10457 14.5 5 14.5C3.89543 14.5 3 13.6046 3 12.5C3 11.3954 3.89543 10.5 5 10.5C6.10457 10.5 7 11.3954 7 12.5Z" fill="#49515D"/>
<path d="M14 12.5C14 13.6046 13.1046 14.5 12 14.5C10.8954 14.5 10 13.6046 10 12.5C10 11.3954 10.8954 10.5 12 10.5C13.1046 10.5 14 11.3954 14 12.5Z" fill="#49515D"/>
<path d="M21 12.5C21 13.6046 20.1046 14.5 19 14.5C17.8954 14.5 17 13.6046 17 12.5C17 11.3954 17.8954 10.5 19 10.5C20.1046 10.5 21 11.3954 21 12.5Z" fill="#49515D"/>
</g>
</g>
</svg>
